<svg width="25" height="24" viewBox="0 0 25 24" fill="none" xmlns="http://www.w3.org/2000/svg">
<path d="M4.09961 3.33301C2.99504 3.33301 2.09961 4.22844 2.09961 5.33301V7.99967C2.09961 9.10424 2.99504 9.99967 4.09961 9.99967H6.76628C7.87085 9.99967 8.76628 9.10424 8.76628 7.99967V5.33301C8.76628 4.22844 7.87085 3.33301 6.76628 3.33301H4.09961Z" fill="#0B0C7D"/>
<path d="M11.4329 7.33301H22.0996V5.99967H11.4329V7.33301Z" fill="#0B0C7D"/>
<path d="M4.09961 13.9997C2.99504 13.9997 2.09961 14.8951 2.09961 15.9997V18.6663C2.09961 19.7709 2.99504 20.6663 4.09961 20.6663H6.76628C7.87085 20.6663 8.76628 19.7709 8.76628 18.6663V15.9997C8.76628 14.8951 7.87085 13.9997 6.76628 13.9997H4.09961Z" fill="#0B0C7D"/>
<path d="M11.4329 17.9997H22.0996V16.6663H11.4329V17.9997Z" fill="#0B0C7D"/>
</svg>
