<svg width="25" height="24" viewBox="0 0 25 24" fill="none" xmlns="http://www.w3.org/2000/svg">
<path fill-rule="evenodd" clip-rule="evenodd" d="M2.5 3.99913C2.5 2.89368 3.39489 2 4.5 2H20.5C21.6051 2 22.5 2.89368 22.5 3.99913V15.9913C22.5 17.0968 21.6051 17.9904 20.5 17.9904H15.5233L13.0546 21.6911C12.9309 21.8765 12.7228 21.9878 12.5 21.9878C12.2772 21.9878 12.0691 21.8765 11.9454 21.6911L9.47667 17.9904H4.5C3.39489 17.9904 2.5 17.0968 2.5 15.9913V3.99913ZM17.1667 8.66667H7.83333V7.33333H17.1667V8.66667ZM15.8333 12.6667H9.16667V11.3333H15.8333V12.6667Z" fill="#0B0C7D"/>
</svg>