<svg width="25" height="24" viewBox="0 0 25 24" fill="none" xmlns="http://www.w3.org/2000/svg">
<path d="M9.43294 2C6.85583 2 4.76628 4.08757 4.76628 6.66406C4.76628 9.24055 6.85583 11.3281 9.43294 11.3281C12.0101 11.3281 14.0996 9.24055 14.0996 6.66406C14.0996 4.08757 12.0101 2 9.43294 2Z" fill="#0B0C7D"/>
<path d="M6.76628 13.9922C4.1891 13.9922 2.09961 16.0807 2.09961 18.6582V21.9878H16.7663V18.6582C16.7663 16.0807 14.6768 13.9922 12.0996 13.9922H6.76628Z" fill="#0B0C7D"/>
<path d="M18.7663 15.3333H18.0996V22H22.0996V18.6667C22.0996 16.8257 20.6072 15.3333 18.7663 15.3333Z" fill="#0B0C7D"/>
<path d="M17.4329 7.33333C15.592 7.33333 14.0996 8.82572 14.0996 10.6667C14.0996 12.5076 15.592 14 17.4329 14C19.2739 14 20.7663 12.5076 20.7663 10.6667C20.7663 8.82572 19.2739 7.33333 17.4329 7.33333Z" fill="#0B0C7D"/>
</svg>
