<svg width="25" height="24" viewBox="0 0 25 24" fill="none" xmlns="http://www.w3.org/2000/svg">
<path fill-rule="evenodd" clip-rule="evenodd" d="M18.1006 4.66667H20.1006C21.2052 4.66667 22.1006 5.5621 22.1006 6.66667V20C22.1006 21.1046 21.2052 22 20.1006 22H4.10059C2.99602 22 2.10059 21.1046 2.10059 20V6.66667C2.10059 5.5621 2.99602 4.66667 4.10059 4.66667H6.10059V2H7.43392V4.66667H16.7673V2H18.1006V4.66667ZM10.1006 12.6667H6.10059V11.3333H10.1006V12.6667ZM18.1006 11.3333H14.1006V12.6667H18.1006V11.3333ZM10.1006 16.6667H6.10059V15.3333H10.1006V16.6667ZM14.1006 16.6667H18.1006V15.3333H14.1006V16.6667Z" fill="#000"/>
</svg>
