<svg width="154" height="20" viewBox="0 0 154 20" fill="none" xmlns="http://www.w3.org/2000/svg">
<rect x="3.5" y="8.5" width="3" height="3" rx="1.5" fill="#D9D9D9"/>
<rect x="8" y="7" width="3" height="6" rx="1.5" fill="#D9D9D9"/>
<rect x="12.5" y="6" width="3" height="8" rx="1.5" fill="#D9D9D9"/>
<rect x="17" y="7" width="3" height="6" rx="1.5" fill="#D9D9D9"/>
<rect x="21.5" y="8" width="3" height="4" rx="1.5" fill="#D9D9D9"/>
<rect x="26" y="8" width="3" height="4" rx="1.5" fill="#D9D9D9"/>
<rect x="30.5" y="7" width="3" height="6" rx="1.5" fill="#D9D9D9"/>
<rect x="35" y="6" width="3" height="8" rx="1.5" fill="#D9D9D9"/>
<rect x="39.5" y="7" width="3" height="6" rx="1.5" fill="#D9D9D9"/>
<rect x="44" y="4" width="3" height="12" rx="1.5" fill="#D9D9D9"/>
<rect x="48.5" y="7" width="3" height="6" rx="1.5" fill="#D9D9D9"/>
<rect x="53" y="7" width="3" height="6" rx="1.5" fill="#D9D9D9"/>
<rect x="57.5" y="2" width="3" height="16" rx="1.5" fill="#D9D9D9"/>
<rect x="62" y="6" width="3" height="8" rx="1.5" fill="#D9D9D9"/>
<rect x="66.5" y="7" width="3" height="6" rx="1.5" fill="#D9D9D9"/>
<rect x="71" y="5" width="3" height="10" rx="1.5" fill="#D9D9D9"/>
<rect x="75.5" y="8" width="3" height="4" rx="1.5" fill="#D9D9D9"/>
<rect x="80" y="4" width="3" height="12" rx="1.5" fill="#D9D9D9"/>
<rect x="84.5" y="8" width="3" height="4" rx="1.5" fill="#D9D9D9"/>
<rect x="89" y="3" width="3" height="14" rx="1.5" fill="#D9D9D9"/>
<rect x="93.5" y="8" width="3" height="4" rx="1.5" fill="#D9D9D9"/>
<rect x="98" width="3" height="20" rx="1.5" fill="#D9D9D9"/>
<rect x="102.5" y="6" width="3" height="8" rx="1.5" fill="#D9D9D9"/>
<rect x="107" y="6" width="3" height="8" rx="1.5" fill="#D9D9D9"/>
<rect x="111.5" y="8" width="3" height="4" rx="1.5" fill="#D9D9D9"/>
<rect x="116" y="6" width="3" height="8" rx="1.5" fill="#D9D9D9"/>
<rect x="120.5" y="8" width="3" height="4" rx="1.5" fill="#D9D9D9"/>
<rect x="125" y="6" width="3" height="8" rx="1.5" fill="#D9D9D9"/>
<rect x="129.5" y="7" width="3" height="6" rx="1.5" fill="#D9D9D9"/>
<rect x="134" y="8" width="3" height="4" rx="1.5" fill="#D9D9D9"/>
<rect x="138.5" y="8.5" width="3" height="3" rx="1.5" fill="#D9D9D9"/>
<rect x="143" y="8.5" width="3" height="3" rx="1.5" fill="#D9D9D9"/>
<rect x="147.5" y="8.5" width="3" height="3" rx="1.5" fill="#D9D9D9"/>
</svg>
