<svg width="25" height="24" viewBox="0 0 25 24" fill="none" xmlns="http://www.w3.org/2000/svg">
<path d="M18.099 21.3337H21.4323V19.3337C21.4323 17.4927 19.9399 16.0003 18.099 16.0003M13.4323 6.66438C13.4323 8.87228 11.6416 10.6618 9.43229 10.6618C7.22296 10.6618 5.43229 8.87228 5.43229 6.66438C5.43229 4.45649 7.22296 2.66699 9.43229 2.66699C11.6416 2.66699 13.4323 4.45649 13.4323 6.66438ZM16.099 21.3215H2.76562C2.76562 20.3748 2.76562 19.4741 2.76562 18.6585C2.76562 16.4494 4.55649 14.6592 6.76563 14.6592H12.099C14.3081 14.6592 16.099 16.4494 16.099 18.6585C16.099 19.4741 16.099 20.3748 16.099 21.3215ZM17.4323 13.3337C15.9595 13.3337 14.7656 12.1398 14.7656 10.667C14.7656 9.19423 15.9595 8.00033 17.4323 8.00033C18.9051 8.00033 20.099 9.19423 20.099 10.667C20.099 12.1398 18.9051 13.3337 17.4323 13.3337Z" stroke="#8E8FA7" stroke-width="2"/>
</svg>
