<svg width="25" height="24" viewBox="0 0 25 24" fill="none" xmlns="http://www.w3.org/2000/svg">
<path d="M11.4323 6.66667H22.099M11.4323 17.3333H22.099M4.09896 4H6.76563C7.502 4 8.09896 4.59695 8.09896 5.33333V8C8.09896 8.73638 7.502 9.33333 6.76563 9.33333H4.09896C3.36258 9.33333 2.76562 8.73638 2.76562 8V5.33333C2.76562 4.59695 3.36258 4 4.09896 4ZM4.09896 14.6667H6.76563C7.502 14.6667 8.09896 15.2636 8.09896 16V18.6667C8.09896 19.403 7.502 20 6.76563 20H4.09896C3.36258 20 2.76562 19.403 2.76562 18.6667V16C2.76562 15.2636 3.36258 14.6667 4.09896 14.6667Z" stroke="#8E8FA7" stroke-width="2"/>
</svg>
