<svg width="25" height="24" viewBox="0 0 25 24" fill="none" xmlns="http://www.w3.org/2000/svg">
<path fill-rule="evenodd" clip-rule="evenodd" d="M3.58301 2.66667C3.58301 2.29848 3.88148 2 4.24967 2H20.2497C20.6179 2 20.9163 2.29848 20.9163 2.66667V21.3333C20.9163 21.5644 20.7967 21.779 20.6002 21.9004C20.4036 22.0219 20.1582 22.0329 19.9515 21.9296L17.583 20.7454L15.2145 21.9296C15.0268 22.0235 14.8059 22.0235 14.6182 21.9296L12.2497 20.7454L9.88115 21.9296C9.69346 22.0235 9.47255 22.0235 9.28486 21.9296L6.91634 20.7454L4.54782 21.9296C4.34116 22.0329 4.09573 22.0219 3.89919 21.9004C3.70264 21.779 3.58301 21.5644 3.58301 21.3333V2.66667ZM7.58301 8.66667H10.2497V7.33333H7.58301V8.66667ZM12.9163 8.66667H16.9163V7.33333H12.9163V8.66667ZM10.2497 12.6667H7.58301V11.3333H10.2497V12.6667ZM12.9163 12.6667H16.9163V11.3333H12.9163V12.6667ZM16.9163 16.6667H12.9163V15.3333H16.9163V16.6667Z" fill="#0B0C7D"/>
</svg>
