<svg width="36" height="36" viewBox="0 0 36 36" fill="none" xmlns="http://www.w3.org/2000/svg">
<rect width="36" height="36" rx="18" fill="#D7E3FC"/>
<path fill-rule="evenodd" clip-rule="evenodd" d="M23.5996 11.6V15.6H25.9996C27.3251 15.6 28.3996 16.6745 28.3996 18V27.6C28.3996 28.9255 27.3251 30 25.9996 30H9.99961C8.67413 30 7.59961 28.9255 7.59961 27.6V18C7.59961 16.6745 8.67413 15.6 9.99961 15.6H12.3996V11.6C12.3996 8.50721 14.9068 6 17.9996 6C21.0924 6 23.5996 8.50721 23.5996 11.6ZM13.9996 11.6C13.9996 9.39086 15.7905 7.6 17.9996 7.6C20.2087 7.6 21.9996 9.39086 21.9996 11.6V15.6H13.9996V11.6Z" fill="#0000CC"/>
</svg>
